# xmcd
# 
# Track frame offsets:
#     150
#     12537
#     22885
#     34905
#     44830
#     53145
#     63357
#     77150
#     88927
#     101380
#     113632
#     132337
#     146405
#     159025
#     167972
#     180352
#     190955
#     207937
#     219815
#     238400
#     250190
#     263152
#     274640
#     284927
#     298835
#     311330
#     329455
# 
# Disc length: 4618
# 
# Revision: 9
# Processed by: cddbd v1.5.2PL0 Copyright (c) Steve Scherf et al.
# Submitted via: fre:ac v1.0.31
# 
DISCID=9112081b
DTITLE=Johnny Cash - The Legend, Disc 1
DYEAR=1956
DGENRE=Country
TTITLE0=I Walk the Line
TTITLE1=There You Go
TTITLE2=Home of the Blues
TTITLE3=Ballad of a Teenage Queen
TTITLE4=Guess Things Happen That Way
TTITLE5=The Ways of a Woman in Love
TTITLE6=Don't Take Your Guns to Town
TTITLE7=Ring of Fire
TTITLE8=The Matador
TTITLE9=Understand Your Man
TTITLE10=The Ballad of Ira Hayes
TTITLE11=Orange Blossom Special
TTITLE12=The One on the Right Is on the Left
TTITLE13=Rosanna's Going Wild
TTITLE14=Folsom Prison Blues
TTITLE15=Daddy Sang Bass
TTITLE16=A Boy Named Sue
TTITLE17=What Is Truth
TTITLE18=Sunday Mornin' Comin' Down
TTITLE19=Flesh and Blood
TTITLE20=Man in Black
TTITLE21=A Thing Called Love
TTITLE22=Kate
TTITLE23=Oney
TTITLE24=Any Old Wind That Blows
TTITLE25=One Piece at a Time
TTITLE26=(Ghost) Riders in the Sky
EXTD=
EXTT0=
EXTT1=
EXTT2=
EXTT3=
EXTT4=
EXTT5=
EXTT6=
EXTT7=
EXTT8=
EXTT9=
EXTT10=
EXTT11=
EXTT12=
EXTT13=
EXTT14=
EXTT15=
EXTT16=
EXTT17=
EXTT18=
EXTT19=
EXTT20=
EXTT21=
EXTT22=
EXTT23=
EXTT24=
EXTT25=
EXTT26=
PLAYORDER=
